#tb 0: 1/8000
#media_type 0: audio
#codec_id 0: pcm_s16le
#sample_rate 0: 8000
#channel_layout_name 0: mono
0,          0,          0,      240,      480, 0xce908869
0,        240,        240,      240,      480, 0xfa63588e
0,        480,        480,      240,      480, 0x11ce850c
0,        720,        720,      240,      480, 0x76c459cf
0,        960,        960,      240,      480, 0x13ed8bf0
0,       1200,       1200,      240,      480, 0x33d10b77
0,       1440,       1440,      240,      480, 0xdf41e03c
0,       1680,       1680,      240,      480, 0xa31aad71
0,       1920,       1920,      240,      480, 0x83c2b48d
0,       2160,       2160,      240,      480, 0xaf41ba01
0,       2400,       2400,      240,      480, 0xeeecbadc
0,       2640,       2640,      240,      480, 0xe253c7e1
0,       2880,       2880,      240,      480, 0x672cbf0a
0,       3120,       3120,      240,      480, 0x5f32aa27
0,       3360,       3360,      240,      480, 0x0b3da147
0,       3600,       3600,      240,      480, 0x4819e5bc
0,       3840,       3840,      240,      480, 0x423dec60
0,       4080,       4080,      240,      480, 0xafefe289
0,       4320,       4320,      240,      480, 0x8dc5f136
0,       4560,       4560,      240,      480, 0x549cee78
0,       4800,       4800,      240,      480, 0xe589ebdc
0,       5040,       5040,      240,      480, 0x786cef17
0,       5280,       5280,      240,      480, 0xdafded31
0,       5520,       5520,      240,      480, 0xe58bedf8
0,       5760,       5760,      240,      480, 0x44daf26c
0,       6000,       6000,      240,      480, 0x03fcf149
0,       6240,       6240,      240,      480, 0x97a5f4ae
0,       6480,       6480,      240,      480, 0x2114f4f6
0,       6720,       6720,      240,      480, 0x9a44f234
0,       6960,       6960,      240,      480, 0x5b47f339
0,       7200,       7200,      240,      480, 0x9248edcb
0,       7440,       7440,      240,      480, 0x47caf226
0,       7680,       7680,      240,      480, 0x73d4ef48
